<mxfile host="app.diagrams.net" agent="Mozilla/5.0 (Windows NT 10.0; Win64; x64) AppleWebKit/537.36 (KHTML, like Gecko) Chrome/126.0.0.0 Safari/537.36 Edg/126.0.0.0" version="24.7.6">
  <diagram name="第 1 页" id="Nku41p21pLQj1T-_mJBP">
    <mxGraphModel dx="660" dy="361" grid="1" gridSize="10" guides="1" tooltips="1" connect="1" arrows="1" fold="1" page="0" pageScale="1" pageWidth="827" pageHeight="1169" math="0" shadow="0">
      <root>
        <mxCell id="0" />
        <mxCell id="1" parent="0" />
        <mxCell id="LhqL1n53AIMKY4t22Z_X-1" value="HDFS: Hadoop 分布式文件管理系统&lt;div&gt;适合一次写入、多次读出、大规模的文件储存与分析任务&lt;br&gt;&lt;div&gt;&lt;br&gt;&lt;/div&gt;&lt;/div&gt;" style="rounded=0;whiteSpace=wrap;html=1;align=left;verticalAlign=top;spacingLeft=4;" vertex="1" parent="1">
          <mxGeometry x="20" y="80" width="330" height="40" as="geometry" />
        </mxCell>
        <mxCell id="LhqL1n53AIMKY4t22Z_X-2" value="&lt;div&gt;&lt;div&gt;Hive: 基于Hadoop的数据库&lt;/div&gt;&lt;div&gt;能够将结构化的数据文件映射为一张数据库表&lt;/div&gt;&lt;/div&gt;&lt;div&gt;使用类SQL语法，可以实现快速开发&lt;/div&gt;" style="rounded=0;whiteSpace=wrap;html=1;align=left;verticalAlign=top;spacingLeft=4;" vertex="1" parent="1">
          <mxGeometry x="20" y="130" width="330" height="60" as="geometry" />
        </mxCell>
        <mxCell id="LhqL1n53AIMKY4t22Z_X-3" value="&lt;div&gt;&lt;div&gt;&lt;br&gt;&lt;/div&gt;&lt;/div&gt;" style="rounded=0;whiteSpace=wrap;html=1;align=left;verticalAlign=top;spacingLeft=4;" vertex="1" parent="1">
          <mxGeometry x="20" y="200" width="330" height="40" as="geometry" />
        </mxCell>
      </root>
    </mxGraphModel>
  </diagram>
</mxfile>
